<svg id="visual" viewBox="0 0 900 600" width="900" height="600" xmlns="http://www.w3.org/2000/svg" xmlns:xlink="http://www.w3.org/1999/xlink" version="1.1"><g stroke-width="1" stroke-linejoin="bevel"><path d="M473 260L490 183L396 196Z" fill="#ffffff" stroke="#ffffff"></path><path d="M490 183L495 143L396 196Z" fill="#fcfcfc" stroke="#fcfcfc"></path><path d="M396 196L392 304L473 260Z" fill="#ffffff" stroke="#ffffff"></path><path d="M495 143L442 90L396 196Z" fill="#ffffff" stroke="#ffffff"></path><path d="M261 82L318 239L396 196Z" fill="#ffffff" stroke="#ffffff"></path><path d="M396 196L318 239L392 304Z" fill="#ffffff" stroke="#ffffff"></path><path d="M490 183L566 155L495 143Z" fill="#f1f1f1" stroke="#f1f1f1"></path><path d="M555 0L468 0L442 90Z" fill="#ffffff" stroke="#ffffff"></path><path d="M473 260L566 155L490 183Z" fill="#fcfcfc" stroke="#fcfcfc"></path><path d="M179 238L270 286L318 239Z" fill="#ffffff" stroke="#ffffff"></path><path d="M318 239L270 286L392 304Z" fill="#f1f1f1" stroke="#f1f1f1"></path><path d="M501 409L608 329L473 260Z" fill="#ffffff" stroke="#ffffff"></path><path d="M473 260L608 329L566 155Z" fill="#ffffff" stroke="#ffffff"></path><path d="M726 226L612 103L566 155Z" fill="#f8f8f8" stroke="#f8f8f8"></path><path d="M566 155L612 103L495 143Z" fill="#ffffff" stroke="#ffffff"></path><path d="M358 418L501 409L392 304Z" fill="#ffffff" stroke="#ffffff"></path><path d="M392 304L501 409L473 260Z" fill="#ffffff" stroke="#ffffff"></path><path d="M555 0L442 90L495 143Z" fill="#ffffff" stroke="#ffffff"></path><path d="M442 90L261 82L396 196Z" fill="#ffffff" stroke="#ffffff"></path><path d="M468 0L418 0L442 90Z" fill="#fcfcfc" stroke="#fcfcfc"></path><path d="M270 286L358 418L392 304Z" fill="#ffffff" stroke="#ffffff"></path><path d="M418 0L261 82L442 90Z" fill="#ffffff" stroke="#ffffff"></path><path d="M612 103L555 0L495 143Z" fill="#f8f8f8" stroke="#f8f8f8"></path><path d="M501 409L556 428L608 329Z" fill="#f5f5f5" stroke="#f5f5f5"></path><path d="M465 471L556 428L501 409Z" fill="#ffffff" stroke="#ffffff"></path><path d="M270 286L306 426L358 418Z" fill="#f5f5f5" stroke="#f5f5f5"></path><path d="M358 418L465 471L501 409Z" fill="#ffffff" stroke="#ffffff"></path><path d="M179 238L226 343L270 286Z" fill="#ffffff" stroke="#ffffff"></path><path d="M270 286L226 343L306 426Z" fill="#eeeeee" stroke="#eeeeee"></path><path d="M368 513L465 471L358 418Z" fill="#ffffff" stroke="#ffffff"></path><path d="M261 82L179 238L318 239Z" fill="#f1f1f1" stroke="#f1f1f1"></path><path d="M556 428L662 376L608 329Z" fill="#f5f5f5" stroke="#f5f5f5"></path><path d="M608 329L726 226L566 155Z" fill="#eeeeee" stroke="#eeeeee"></path><path d="M185 419L309 455L306 426Z" fill="#f8f8f8" stroke="#f8f8f8"></path><path d="M306 426L309 455L358 418Z" fill="#ffffff" stroke="#ffffff"></path><path d="M736 307L726 226L608 329Z" fill="#ffffff" stroke="#ffffff"></path><path d="M612 103L693 0L555 0Z" fill="#f8f8f8" stroke="#f8f8f8"></path><path d="M418 0L265 0L261 82Z" fill="#ffffff" stroke="#ffffff"></path><path d="M261 82L174 114L179 238Z" fill="#eeeeee" stroke="#eeeeee"></path><path d="M235 0L174 114L261 82Z" fill="#fcfcfc" stroke="#fcfcfc"></path><path d="M265 0L235 0L261 82Z" fill="#ffffff" stroke="#ffffff"></path><path d="M662 376L736 307L608 329Z" fill="#ffffff" stroke="#ffffff"></path><path d="M761 105L731 102L726 226Z" fill="#ffffff" stroke="#ffffff"></path><path d="M726 226L731 102L612 103Z" fill="#ffffff" stroke="#ffffff"></path><path d="M309 455L368 513L358 418Z" fill="#f1f1f1" stroke="#f1f1f1"></path><path d="M731 102L693 0L612 103Z" fill="#ffffff" stroke="#ffffff"></path><path d="M179 238L131 317L226 343Z" fill="#ffffff" stroke="#ffffff"></path><path d="M226 343L185 419L306 426Z" fill="#ffffff" stroke="#ffffff"></path><path d="M308 600L363 600L368 513Z" fill="#ffffff" stroke="#ffffff"></path><path d="M74 156L131 317L179 238Z" fill="#f8f8f8" stroke="#f8f8f8"></path><path d="M141 398L185 419L226 343Z" fill="#ffffff" stroke="#ffffff"></path><path d="M842 236L761 105L726 226Z" fill="#ffffff" stroke="#ffffff"></path><path d="M731 102L811 0L693 0Z" fill="#eeeeee" stroke="#eeeeee"></path><path d="M468 600L597 518L465 471Z" fill="#ffffff" stroke="#ffffff"></path><path d="M465 471L597 518L556 428Z" fill="#ffffff" stroke="#ffffff"></path><path d="M556 428L597 518L662 376Z" fill="#eeeeee" stroke="#eeeeee"></path><path d="M816 366L809 334L736 307Z" fill="#ffffff" stroke="#ffffff"></path><path d="M235 0L129 58L174 114Z" fill="#eeeeee" stroke="#eeeeee"></path><path d="M174 114L74 156L179 238Z" fill="#ffffff" stroke="#ffffff"></path><path d="M131 317L141 398L226 343Z" fill="#ffffff" stroke="#ffffff"></path><path d="M185 419L162 476L309 455Z" fill="#ffffff" stroke="#ffffff"></path><path d="M129 58L74 156L174 114Z" fill="#f8f8f8" stroke="#f8f8f8"></path><path d="M0 380L123 458L141 398Z" fill="#ffffff" stroke="#ffffff"></path><path d="M597 518L710 485L662 376Z" fill="#ffffff" stroke="#ffffff"></path><path d="M816 366L736 307L662 376Z" fill="#eeeeee" stroke="#eeeeee"></path><path d="M736 307L842 236L726 226Z" fill="#f5f5f5" stroke="#f5f5f5"></path><path d="M123 458L162 476L185 419Z" fill="#ffffff" stroke="#ffffff"></path><path d="M123 458L185 419L141 398Z" fill="#f1f1f1" stroke="#f1f1f1"></path><path d="M368 513L468 600L465 471Z" fill="#ffffff" stroke="#ffffff"></path><path d="M597 518L703 600L710 485Z" fill="#ffffff" stroke="#ffffff"></path><path d="M363 600L468 600L368 513Z" fill="#ffffff" stroke="#ffffff"></path><path d="M308 600L368 513L309 455Z" fill="#ffffff" stroke="#ffffff"></path><path d="M809 334L842 236L736 307Z" fill="#f5f5f5" stroke="#f5f5f5"></path><path d="M710 485L816 366L662 376Z" fill="#ffffff" stroke="#ffffff"></path><path d="M900 282L900 244L842 236Z" fill="#ffffff" stroke="#ffffff"></path><path d="M0 380L141 398L131 317Z" fill="#ffffff" stroke="#ffffff"></path><path d="M223 600L308 600L309 455Z" fill="#ffffff" stroke="#ffffff"></path><path d="M468 600L575 600L597 518Z" fill="#f5f5f5" stroke="#f5f5f5"></path><path d="M223 600L309 455L162 476Z" fill="#f8f8f8" stroke="#f8f8f8"></path><path d="M900 111L811 0L761 105Z" fill="#ffffff" stroke="#ffffff"></path><path d="M761 105L811 0L731 102Z" fill="#f1f1f1" stroke="#f1f1f1"></path><path d="M129 58L0 132L74 156Z" fill="#fcfcfc" stroke="#fcfcfc"></path><path d="M235 0L73 0L129 58Z" fill="#f1f1f1" stroke="#f1f1f1"></path><path d="M102 600L223 600L162 476Z" fill="#f8f8f8" stroke="#f8f8f8"></path><path d="M0 132L0 211L74 156Z" fill="#ffffff" stroke="#ffffff"></path><path d="M74 156L0 211L131 317Z" fill="#ffffff" stroke="#ffffff"></path><path d="M73 0L0 132L129 58Z" fill="#ffffff" stroke="#ffffff"></path><path d="M900 282L842 236L809 334Z" fill="#fcfcfc" stroke="#fcfcfc"></path><path d="M842 236L900 111L761 105Z" fill="#ffffff" stroke="#ffffff"></path><path d="M816 366L900 282L809 334Z" fill="#ffffff" stroke="#ffffff"></path><path d="M900 439L900 282L816 366Z" fill="#ffffff" stroke="#ffffff"></path><path d="M768 600L835 458L710 485Z" fill="#fcfcfc" stroke="#fcfcfc"></path><path d="M710 485L835 458L816 366Z" fill="#f5f5f5" stroke="#f5f5f5"></path><path d="M0 211L0 338L131 317Z" fill="#ffffff" stroke="#ffffff"></path><path d="M123 458L102 600L162 476Z" fill="#eeeeee" stroke="#eeeeee"></path><path d="M575 600L703 600L597 518Z" fill="#ffffff" stroke="#ffffff"></path><path d="M900 244L900 111L842 236Z" fill="#eeeeee" stroke="#eeeeee"></path><path d="M0 338L0 380L131 317Z" fill="#f1f1f1" stroke="#f1f1f1"></path><path d="M73 0L0 0L0 132Z" fill="#fcfcfc" stroke="#fcfcfc"></path><path d="M900 111L900 0L811 0Z" fill="#ffffff" stroke="#ffffff"></path><path d="M703 600L768 600L710 485Z" fill="#ffffff" stroke="#ffffff"></path><path d="M900 516L900 439L835 458Z" fill="#ffffff" stroke="#ffffff"></path><path d="M835 458L900 439L816 366Z" fill="#eeeeee" stroke="#eeeeee"></path><path d="M0 488L102 600L123 458Z" fill="#f1f1f1" stroke="#f1f1f1"></path><path d="M0 380L0 488L123 458Z" fill="#eeeeee" stroke="#eeeeee"></path><path d="M768 600L900 516L835 458Z" fill="#fcfcfc" stroke="#fcfcfc"></path><path d="M0 488L0 600L102 600Z" fill="#ffffff" stroke="#ffffff"></path><path d="M768 600L900 600L900 516Z" fill="#eeeeee" stroke="#eeeeee"></path></g></svg>