<svg id="visual" viewBox="0 0 960 540" width="960" height="540" xmlns="http://www.w3.org/2000/svg" xmlns:xlink="http://www.w3.org/1999/xlink" version="1.1"><rect x="0" y="0" width="960" height="540" fill="#ffffff"></rect><defs><linearGradient id="grad1_0" x1="43.8%" y1="0%" x2="100%" y2="100%"><stop offset="14.444444444444446%" stop-color="#ffffff" stop-opacity="1"></stop><stop offset="85.55555555555554%" stop-color="#ffffff" stop-opacity="1"></stop></linearGradient></defs><defs><linearGradient id="grad2_0" x1="0%" y1="0%" x2="56.3%" y2="100%"><stop offset="14.444444444444446%" stop-color="#ffffff" stop-opacity="1"></stop><stop offset="85.55555555555554%" stop-color="#ffffff" stop-opacity="1"></stop></linearGradient></defs><g transform="translate(960, 0)"><path d="M0 351C-26.3 299.4 -52.5 247.8 -98.7 238.4C-144.9 228.9 -211.1 261.5 -248.2 248.2C-285.3 234.9 -293.5 175.7 -305.8 126.7C-318.1 77.7 -334.6 38.8 -351 0L0 0Z" fill="#9ed3ff"></path></g><g transform="translate(0, 540)"><path d="M0 -351C55.3 -357.6 110.6 -364.2 134.3 -324.3C158.1 -284.3 150.3 -197.8 152 -152C153.7 -106.2 164.8 -101.2 199.6 -82.7C234.3 -64.1 292.6 -32.1 351 0L0 0Z" fill="#9ed3ff"></path></g></svg>